<svg xmlns="http://www.w3.org/2000/svg" version="1.1" viewBox="-5.0 -10.0 110.0 135.0">
 <path d="m90.625 37.363h-21.191c-0.79297 0-1.5547 0.30078-2.1367 0.84375l-10.156 9.5117c-0.62891 0.58984-0.98828 1.418-0.98828 2.2812s0.35938 1.6914 0.98828 2.2812l10.156 9.5117c0.57812 0.54297 1.3438 0.84375 2.1367 0.84375h21.191c1.7266 0 3.125-1.3984 3.125-3.125v-19.023c0-1.7266-1.3984-3.125-3.125-3.125z"/>
 <path d="m9.375 62.637h21.191c0.79297 0 1.5547-0.30078 2.1367-0.84375l10.156-9.5117c0.62891-0.58984 0.98828-1.418 0.98828-2.2812s-0.35938-1.6914-0.98828-2.2812l-10.156-9.5117c-0.57812-0.54297-1.3438-0.84375-2.1367-0.84375h-21.191c-1.7266 0-3.125 1.3984-3.125 3.125v19.023c0 1.7266 1.3984 3.125 3.125 3.125z"/>
 <path d="m51.949 56.84c-1.1406-0.91016-2.7578-0.91016-3.8984 0l-9.5117 7.5977c-0.74219 0.59375-1.1758 1.4922-1.1758 2.4414v23.746c0 1.7266 1.3984 3.125 3.125 3.125h19.023c1.7266 0 3.125-1.3984 3.125-3.125v-23.746c0-0.94922-0.43359-1.8477-1.1758-2.4414z"/>
 <path d="m62.637 33.121v-23.746c0-1.7266-1.3984-3.125-3.125-3.125h-19.023c-1.7266 0-3.125 1.3984-3.125 3.125v23.746c0 0.94922 0.43359 1.8477 1.1758 2.4414l9.5117 7.5977c0.57031 0.45312 1.2617 0.68359 1.9492 0.68359 0.69141 0 1.3789-0.23047 1.9492-0.68359l9.5117-7.5977c0.74609-0.59375 1.1758-1.4922 1.1758-2.4414z"/>
<text x="0.0" y="117.5" font-size="5.0" font-weight="bold" font-family="Arbeit Regular, Helvetica, Arial-Unicode, Arial, Sans-serif" fill="#000000">Created by Riyan Resdian</text><text x="0.0" y="122.5" font-size="5.0" font-weight="bold" font-family="Arbeit Regular, Helvetica, Arial-Unicode, Arial, Sans-serif" fill="#000000">from Noun Project</text></svg>